<svg width="35" height="35" viewBox="0 0 35 35" fill="none" xmlns="http://www.w3.org/2000/svg">
<path d="M4.375 16.0417V16.4167C4.375 18.3023 4.375 19.2451 4.96079 19.8309C5.54657 20.4167 6.48938 20.4167 8.375 20.4167H10.2251C10.9209 20.4167 11.2687 20.4167 11.5306 20.6054C11.7925 20.7942 11.9025 21.1242 12.1225 21.7842L12.6692 23.4241C12.8892 24.0841 12.9992 24.4142 13.261 24.6029C13.5229 24.7917 13.8708 24.7917 14.5665 24.7917H20.4335C21.1292 24.7917 21.4771 24.7917 21.739 24.6029C22.0008 24.4142 22.1108 24.0841 22.3308 23.4241L22.8775 21.7842C23.0975 21.1242 23.2075 20.7942 23.4694 20.6054C23.7313 20.4167 24.0791 20.4167 24.7749 20.4167H26.625C28.5106 20.4167 29.4534 20.4167 30.0392 19.8309C30.625 19.2451 30.625 18.3023 30.625 16.4167V16.0417" stroke="#000000" stroke-width="2"/>
<path d="M11.6665 13.125L17.4998 17.5M17.4998 17.5L23.3332 13.125M17.4998 17.5L17.4998 2.91667" stroke="#000000" stroke-width="2"/>
<path d="M23.3333 7.29167H26.625C28.5106 7.29167 29.4534 7.29167 30.0392 7.87746C30.625 8.46324 30.625 9.40605 30.625 11.2917V26.625C30.625 28.5106 30.625 29.4534 30.0392 30.0392C29.4534 30.625 28.5106 30.625 26.625 30.625H8.375C6.48938 30.625 5.54657 30.625 4.96079 30.0392C4.375 29.4534 4.375 28.5106 4.375 26.625V11.2917C4.375 9.40606 4.375 8.46324 4.96079 7.87746C5.54657 7.29167 6.48938 7.29167 8.375 7.29167H11.6667" stroke="#000000" stroke-width="2"/>
</svg>
