<svg width="50" height="58" viewBox="0 0 50 58" fill="none" xmlns="http://www.w3.org/2000/svg">
<circle cx="25" cy="29" r="25" fill="white"/>
<path d="M28.5909 11.0909H32.8182V36.0455C32.8182 38.2727 32.4091 40.1648 31.5909 41.7216C30.7727 43.2784 29.6193 44.4602 28.1307 45.267C26.642 46.0739 24.8864 46.4773 22.8636 46.4773C20.9545 46.4773 19.2557 46.1307 17.767 45.4375C16.2784 44.733 15.108 43.733 14.2557 42.4375C13.4034 41.142 12.9773 39.6023 12.9773 37.8182H17.1364C17.1364 38.8068 17.3807 39.6705 17.8693 40.4091C18.3693 41.1364 19.0511 41.7045 19.9148 42.1136C20.7784 42.5227 21.7614 42.7273 22.8636 42.7273C24.0795 42.7273 25.1136 42.4716 25.9659 41.9602C26.8182 41.4489 27.4659 40.6989 27.9091 39.7102C28.3636 38.7102 28.5909 37.4886 28.5909 36.0455V11.0909Z" fill="#1E1E1E"/>
</svg>
