<svg width="90" height="90" viewBox="0 0 70 70" fill="none" xmlns="http://www.w3.org/2000/svg">
<circle cx="35" cy="35" r="2.91667" fill="#FFF"/>
<path d="M49.0833 35C49.0833 42.9934 47.4623 50.2053 44.8648 55.4003C42.2523 60.6253 38.7357 63.6667 35 63.6667C31.2643 63.6667 27.7477 60.6253 25.1352 55.4003C22.5377 50.2053 20.9167 42.9934 20.9167 35C20.9167 27.0066 22.5377 19.7947 25.1352 14.5997C27.7477 9.37469 31.2643 6.33334 35 6.33334C38.7357 6.33334 42.2523 9.37469 44.8648 14.5997C47.4623 19.7947 49.0833 27.0066 49.0833 35Z" stroke="#FFF"/>
<path d="M42.0417 47.1961C35.1192 51.1928 28.063 53.3948 22.2652 53.7429C16.4339 54.0929 12.0418 52.5681 10.1739 49.3329C8.3061 46.0977 9.18168 41.5316 12.4004 36.6566C15.6007 31.8095 21.0359 26.7997 27.9583 22.803C34.8808 18.8063 41.937 16.6043 47.7348 16.2562C53.566 15.9062 57.9582 17.431 59.826 20.6662C61.6939 23.9014 60.8183 28.4675 57.5996 33.3425C54.3993 38.1896 48.9641 43.1994 42.0417 47.1961Z" stroke="#FFF"/>
<path d="M42.0416 22.8033C35.1192 18.8067 28.063 16.6046 22.2651 16.2566C16.4339 15.9066 12.0418 17.4314 10.1739 20.6665C8.30609 23.9017 9.18167 28.4679 12.4004 33.3428C15.6007 38.1899 21.0359 43.1997 27.9583 47.1964C34.8808 51.1931 41.937 53.3952 47.7348 53.7432C53.566 54.0932 57.9582 52.5684 59.826 49.3332C61.6939 46.098 60.8183 41.5319 57.5996 36.6569C54.3993 31.8098 48.9641 26.8 42.0416 22.8033Z" stroke="#FFF"/>
</svg>
